<mxfile host="app.diagrams.net" modified="2023-05-24T14:26:57.058Z" agent="Mozilla/5.0 (Windows NT 10.0; Win64; x64; rv:109.0) Gecko/20100101 Firefox/113.0" etag="UATiItfIwX_9bbvz50ue" version="21.3.3" type="github">
  <diagram name="Strona-1" id="VtrbDFPd5q9PhZEtTbry">
    <mxGraphModel dx="989" dy="539" grid="1" gridSize="10" guides="1" tooltips="1" connect="1" arrows="1" fold="1" page="1" pageScale="1" pageWidth="827" pageHeight="1169" math="0" shadow="0">
      <root>
        <mxCell id="0" />
        <mxCell id="1" parent="0" />
        <mxCell id="7bphNffgXHVLwuXxrw4F-3" style="edgeStyle=orthogonalEdgeStyle;rounded=0;orthogonalLoop=1;jettySize=auto;html=1;" parent="1" source="7bphNffgXHVLwuXxrw4F-1" target="7bphNffgXHVLwuXxrw4F-2" edge="1">
          <mxGeometry relative="1" as="geometry" />
        </mxCell>
        <mxCell id="7bphNffgXHVLwuXxrw4F-1" value="" style="ellipse;fillColor=strokeColor;html=1;" parent="1" vertex="1">
          <mxGeometry x="130" y="170" width="30" height="30" as="geometry" />
        </mxCell>
        <mxCell id="7bphNffgXHVLwuXxrw4F-7" value="" style="edgeStyle=orthogonalEdgeStyle;rounded=0;orthogonalLoop=1;jettySize=auto;html=1;" parent="1" source="7bphNffgXHVLwuXxrw4F-2" target="7bphNffgXHVLwuXxrw4F-6" edge="1">
          <mxGeometry relative="1" as="geometry" />
        </mxCell>
        <mxCell id="7bphNffgXHVLwuXxrw4F-17" style="edgeStyle=orthogonalEdgeStyle;rounded=0;orthogonalLoop=1;jettySize=auto;html=1;exitX=0.5;exitY=0;exitDx=0;exitDy=0;entryX=0.5;entryY=1;entryDx=0;entryDy=0;" parent="1" source="7bphNffgXHVLwuXxrw4F-2" target="7bphNffgXHVLwuXxrw4F-16" edge="1">
          <mxGeometry relative="1" as="geometry" />
        </mxCell>
        <mxCell id="7bphNffgXHVLwuXxrw4F-2" value="Waiting for user input" style="rounded=1;whiteSpace=wrap;html=1;" parent="1" vertex="1">
          <mxGeometry x="294" y="155" width="120" height="60" as="geometry" />
        </mxCell>
        <mxCell id="7bphNffgXHVLwuXxrw4F-9" value="" style="edgeStyle=orthogonalEdgeStyle;rounded=0;orthogonalLoop=1;jettySize=auto;html=1;entryX=0;entryY=0.5;entryDx=0;entryDy=0;" parent="1" source="7bphNffgXHVLwuXxrw4F-6" target="ghIzWxrolaCGQlfThOXV-1" edge="1">
          <mxGeometry relative="1" as="geometry">
            <mxPoint x="494" y="325" as="targetPoint" />
          </mxGeometry>
        </mxCell>
        <mxCell id="7bphNffgXHVLwuXxrw4F-6" value="Randomly choosing source (wikipedia or shazam)" style="whiteSpace=wrap;html=1;rounded=1;" parent="1" vertex="1">
          <mxGeometry x="294" y="295" width="120" height="60" as="geometry" />
        </mxCell>
        <mxCell id="7bphNffgXHVLwuXxrw4F-14" style="edgeStyle=orthogonalEdgeStyle;rounded=0;orthogonalLoop=1;jettySize=auto;html=1;exitX=0;exitY=0.5;exitDx=0;exitDy=0;entryX=1;entryY=0.5;entryDx=0;entryDy=0;" parent="1" source="ghIzWxrolaCGQlfThOXV-5" target="7bphNffgXHVLwuXxrw4F-2" edge="1">
          <mxGeometry relative="1" as="geometry">
            <mxPoint x="549.9999999999998" y="185" as="sourcePoint" />
          </mxGeometry>
        </mxCell>
        <mxCell id="7bphNffgXHVLwuXxrw4F-16" value="" style="ellipse;html=1;shape=endState;fillColor=strokeColor;" parent="1" vertex="1">
          <mxGeometry x="339" y="40" width="30" height="30" as="geometry" />
        </mxCell>
        <mxCell id="7bphNffgXHVLwuXxrw4F-20" value="Request a song" style="text;html=1;strokeColor=none;fillColor=none;align=center;verticalAlign=middle;whiteSpace=wrap;rounded=0;" parent="1" vertex="1">
          <mxGeometry x="300" y="230" width="60" height="30" as="geometry" />
        </mxCell>
        <mxCell id="7bphNffgXHVLwuXxrw4F-22" value="EXIT" style="text;html=1;strokeColor=none;fillColor=none;align=center;verticalAlign=middle;whiteSpace=wrap;rounded=0;" parent="1" vertex="1">
          <mxGeometry x="340" y="100" width="60" height="30" as="geometry" />
        </mxCell>
        <mxCell id="7bphNffgXHVLwuXxrw4F-23" value="Show the user an interface" style="text;html=1;strokeColor=none;fillColor=none;align=center;verticalAlign=middle;whiteSpace=wrap;rounded=0;" parent="1" vertex="1">
          <mxGeometry x="200" y="155" width="70" height="30" as="geometry" />
        </mxCell>
        <mxCell id="ghIzWxrolaCGQlfThOXV-6" style="edgeStyle=orthogonalEdgeStyle;rounded=0;orthogonalLoop=1;jettySize=auto;html=1;exitX=1;exitY=0.5;exitDx=0;exitDy=0;entryX=0.5;entryY=1;entryDx=0;entryDy=0;" edge="1" parent="1" source="ghIzWxrolaCGQlfThOXV-1" target="ghIzWxrolaCGQlfThOXV-5">
          <mxGeometry relative="1" as="geometry" />
        </mxCell>
        <mxCell id="ghIzWxrolaCGQlfThOXV-1" value="Generating random song link" style="rounded=1;whiteSpace=wrap;html=1;" vertex="1" parent="1">
          <mxGeometry x="500" y="295" width="120" height="60" as="geometry" />
        </mxCell>
        <mxCell id="ghIzWxrolaCGQlfThOXV-4" value="Request a song" style="text;html=1;strokeColor=none;fillColor=none;align=center;verticalAlign=middle;whiteSpace=wrap;rounded=0;" vertex="1" parent="1">
          <mxGeometry x="430" y="295" width="60" height="30" as="geometry" />
        </mxCell>
        <mxCell id="ghIzWxrolaCGQlfThOXV-5" value="Passing on the URL to the user" style="rounded=1;whiteSpace=wrap;html=1;" vertex="1" parent="1">
          <mxGeometry x="640" y="155" width="120" height="60" as="geometry" />
        </mxCell>
        <mxCell id="ghIzWxrolaCGQlfThOXV-7" value="return song URL" style="text;html=1;strokeColor=none;fillColor=none;align=center;verticalAlign=middle;whiteSpace=wrap;rounded=0;" vertex="1" parent="1">
          <mxGeometry x="640" y="295" width="60" height="30" as="geometry" />
        </mxCell>
      </root>
    </mxGraphModel>
  </diagram>
</mxfile>
